Coordinates
version=1
nRows=19
nColumns=34
inDegrees=yes

Units are S.I. units (second, meters, Newtons, ...)
If the header above contains a line with 'inDegrees', this indicates whether rotational values are in degrees (yes) or radians (no).

endheader
time	pelvis_tilt	pelvis_list	pelvis_rotation	pelvis_tx	pelvis_ty	pelvis_tz	hip_flexion_r	hip_adduction_r	hip_rotation_r	knee_angle_r	ankle_angle_r	subtalar_angle_r	mtp_angle_r	hip_flexion_l	hip_adduction_l	hip_rotation_l	knee_angle_l	ankle_angle_l	subtalar_angle_l	mtp_angle_l	lumbar_extension	lumbar_bending	lumbar_rotation	arm_flex_r	arm_add_r	arm_rot_r	elbow_flex_r	pro_sup_r	arm_flex_l	arm_add_l	arm_rot_l	elbow_flex_l	pro_sup_l
      1.36666670	    -12.70837424	     -2.30487399	     -1.25697917	      0.64838447	      1.42890924	     -0.30104797	     30.53697264	     -5.92216753	     -7.14309282	     24.41737937	    -12.23490818	     -1.12035671	      0.00000000	     33.92526259	    -11.62345863	     -7.62057441	     26.70452251	    -18.83906236	     -6.01369290	      0.00000000	    -11.93367857	     -0.06160327	     -3.95092190	    -61.48850169	    -47.03587514	    -28.53308117	    109.01596500	     78.83527015	    -34.74478203	    -53.03200123	    -27.36854971	    118.71869031	     73.37407938
      1.38333330	    -12.63151003	     -2.78158728	     -2.06962411	      0.66703205	      1.39690674	     -0.29947100	     31.20224562	     -5.39673335	     -7.62013743	     24.31124307	    -12.02158689	     -2.08357273	      0.00000000	     34.02696743	    -12.76214550	     -8.31676981	     24.67270271	    -19.26349511	     -5.45316916	      0.00000000	    -11.69216565	      0.17942493	     -3.53856684	    -64.49075221	    -47.45179254	    -27.52311992	    109.45637660	     79.26107790	    -37.58438989	    -52.95574140	    -27.65975893	    120.12291379	     73.80471469
      1.40000000	    -12.35654348	     -3.03939761	     -2.71189205	      0.68501001	      1.36417980	     -0.30123909	     31.47612759	     -5.25595392	     -8.20757149	     23.96244225	    -12.54520199	     -3.27781623	      0.00000000	     33.96484968	    -13.53604683	     -9.36467497	     22.85628162	    -20.34088035	     -5.29561150	      0.00000000	    -11.62670374	      0.40925242	     -3.50373287	    -67.20924888	    -47.50670968	    -27.47701952	    110.11285581	     79.66315256	    -39.98869696	    -51.99318281	    -28.50527973	    120.76049382	     74.32238572
      1.41666670	    -12.05104207	     -3.24569085	     -3.11923678	      0.70198721	      1.32862545	     -0.29836699	     31.66967200	     -4.99347675	     -8.49429084	     23.32445955	    -12.00290670	     -3.14212802	      0.00000000	     33.74264406	    -14.22537368	     -9.94455196	     21.20209221	    -20.96477081	     -4.87476475	      0.00000000	    -11.52236375	      0.42747159	     -3.42622744	    -69.39950381	    -46.89457414	    -26.97549387	    110.54937162	     79.99896490	    -42.01632182	    -51.69055241	    -28.99305613	    121.41840889	     74.71222549
      1.43333330	    -11.63231990	     -3.42079952	     -3.71638244	      0.71674771	      1.29300559	     -0.29995098	     31.83962490	     -4.75212260	     -9.01134423	     22.69217417	    -11.46465486	     -2.42401371	      0.00000000	     33.45824407	    -14.78508442	     -9.93097648	     19.85542913	    -21.01737455	     -4.43799478	      0.00000000	    -12.18770002	      0.45555380	     -4.70027899	    -69.04434796	    -47.68399004	    -25.68665252	    110.95394974	     82.64874211	    -46.32716187	    -48.67641097	    -32.18315293	    122.58268370	     78.49755858
      1.45000000	    -11.20478112	     -3.44183919	     -3.97176566	      0.73700794	      1.25064838	     -0.29872987	     31.94788031	     -4.76635703	     -9.03670212	     22.38784407	    -10.81360638	     -2.42827908	      0.00000000	     33.41439563	    -15.14112007	    -10.00629881	     19.33804327	    -20.79621622	     -4.56598788	      0.00000000	    -12.26469820	      0.36446132	     -4.65968270	    -69.30339604	    -46.95689335	    -24.81943909	    111.12967762	     82.71253551	    -46.89634122	    -47.91749001	    -31.40647276	    122.64169421	     78.57979742
      1.46666670	    -11.07303630	     -3.30577794	     -4.34695607	      0.75605962	      1.20626978	     -0.29417822	     32.79686342	     -4.86134950	     -8.72481634	     23.16276294	     -8.98015025	     -1.55557866	      0.00000000	     33.98423940	    -15.63849722	    -10.48702255	     20.17196950	    -19.34170046	     -4.43604620	      0.00000000	    -12.29262482	     -0.14494169	     -4.28524600	    -67.74496960	    -45.34492922	    -22.36847323	    110.75546343	     83.07291312	    -46.48572914	    -47.08301372	    -29.93073406	    122.70095599	     79.15007108
      1.48333330	    -10.77669469	     -3.09899193	     -4.65353276	      0.76192518	      1.16896623	     -0.29381667	     33.67720530	     -5.10018387	     -8.37500424	     23.95218152	     -8.30202732	     -1.69001800	      0.00000000	     34.76094225	    -15.90409269	    -10.70548247	     21.66565000	    -18.86321312	     -5.01350786	      0.00000000	    -12.84740480	     -0.59130162	     -4.19399064	    -64.53289826	    -43.19646831	    -20.31148959	    109.69457249	     83.50490609	    -44.91240303	    -46.07020299	    -27.86008249	    121.82495202	     80.06482447
      1.50000000	    -10.58102429	     -2.57889151	     -4.35044517	      0.77590675	      1.13182309	     -0.29442326	     34.41344389	     -5.79817775	     -7.74645022	     24.82365375	     -7.22871325	     -1.30143909	      0.00000000	     35.89143091	    -15.62559722	    -10.62530311	     24.37063068	    -15.55141907	     -5.77550949	      0.00000000	    -13.64198825	     -1.33188621	     -4.29552542	    -58.94902218	    -39.58510802	    -18.06480525	    107.44018761	     83.92298630	    -40.48265668	    -44.97613345	    -24.20489832	    119.07707368	     81.65593116
      1.51666670	    -10.69994801	     -2.67951103	     -4.16920366	      0.79302063	      1.08343645	     -0.29530395	     36.72915962	     -5.97189126	     -6.75671745	     29.19131944	     -2.63256600	     -2.61207682	      0.00000000	     38.88460485	    -16.26878240	     -9.42607960	     30.57113158	     -8.24791025	     -7.02696445	      0.00000000	    -14.26631658	     -1.34008116	     -4.52611136	    -52.08352952	    -36.61201068	    -15.71630796	    103.80556220	     84.05073801	    -36.20560150	    -42.74448263	    -21.70344174	    116.35981991	     82.01555951
      1.53333330	    -11.47505688	     -2.88432190	     -4.12103700	      0.79326943	      1.05200142	     -0.29006202	     41.42157961	     -5.69027967	     -4.82841841	     36.58266487	      3.14830266	     -4.84326020	      0.00000000	     44.05221927	    -17.36888515	     -7.63907466	     38.82179764	     -0.05107922	     -7.20798439	      0.00000000	    -14.95135974	     -1.45742882	     -4.28056879	    -43.12802981	    -32.71451791	    -12.24436858	     98.69813421	     84.08531293	    -30.80043585	    -40.74215131	    -17.86113429	    112.37555283	     82.44308291
      1.55000000	    -12.15336184	     -3.03708174	     -4.11428073	      0.80088294	      1.00530929	     -0.29415753	     47.64750290	     -5.55577250	     -2.92045003	     46.35345621	      9.38699042	     -6.96687492	      0.00000000	     50.43486513	    -18.53317196	     -5.66382676	     48.61974352	      7.47136616	     -7.55518650	      0.00000000	    -15.93202181	     -1.24922219	     -4.32271361	    -34.75836875	    -29.26418399	    -10.33756046	     94.07026375	     84.03740468	    -25.35574337	    -38.56396284	    -15.84894708	    108.29389606	     82.62433930
      1.56666670	    -13.37832224	     -3.11743827	     -4.39292428	      0.81235225	      0.97200748	     -0.29901339	     54.45882037	     -5.35167977	     -1.28518217	     56.15130394	     14.90354072	     -8.33148633	      0.00000000	     57.32064748	    -19.66182520	     -3.79145354	     58.15957124	     13.65211961	     -7.80536482	      0.00000000	    -16.54947680	     -0.94050288	     -4.26198340	    -25.85920967	    -26.68474142	     -7.61386836	     88.94983346	     84.00036166	    -19.02227986	    -36.49783658	    -12.08088383	    105.52307982	     82.93325107
      1.58333330	    -14.22333970	     -3.07444227	     -4.56439772	      0.81224925	      0.95509631	     -0.29798121	     59.62462619	     -5.31511813	     -0.16415738	     63.71628683	     18.70840172	     -9.17137723	      0.00000000	     62.37316958	    -20.34533654	     -2.51265209	     65.14937413	     17.94775880	     -8.01577991	      0.00000000	    -18.10901994	     -0.60743316	     -4.12140637	    -14.92297624	    -23.91310823	     -4.55028686	     82.92777475	     83.93277322	    -10.66364829	    -35.10813380	     -7.24650616	    100.65691679	     83.22398169
      1.60000000	    -14.95484100	     -3.09694156	     -4.64373112	      0.81917492	      0.92250002	     -0.30117641	     64.13581649	     -5.44395964	      0.42407854	     70.32694638	     21.72495174	     -9.76390898	      0.00000000	     66.65960685	    -20.77360610	     -1.14801095	     71.13879452	     21.32671047	     -8.14971596	      0.00000000	    -20.04406714	     -0.36780532	     -3.02020992	     -5.17318692	    -22.02655864	     -1.99929082	     78.97690199	     84.15409399	     -1.82966591	    -33.69627491	     -2.82041884	     97.71753679	     83.45326463
      1.61666670	    -16.18105408	     -2.84313624	     -4.60576966	      0.81859245	      0.88401149	     -0.30470136	     68.91506722	     -5.97525488	      1.00768262	     76.32675221	     24.36334293	     -9.79248121	      0.00000000	     71.15842475	    -20.91222950	      0.03324597	     76.56326533	     24.24265130	     -7.58792113	      0.00000000	    -21.78261387	     -0.24165231	     -2.21833339	      3.73823371	    -21.45668671	     -0.04146471	     79.57774509	     84.67588571	      6.24481777	    -32.65406200	      0.65846066	     99.56374013	     83.83117131
      1.63333330	    -17.81288836	     -2.35188999	     -4.65272186	      0.82474364	      0.85301826	     -0.30268251	     73.77869821	     -6.37860953	      1.83336514	     81.75397806	     26.80077925	    -10.44866786	      0.00000000	     75.75339292	    -21.05931411	      0.95051635	     81.51791530	     26.63343402	     -7.61226217	      0.00000000	    -22.18401433	     -0.41638966	      0.97688682	      8.90580332	    -22.01885381	     -0.91913275	     82.71905015	     87.51463404	     16.57801749	    -31.04256270	      8.83705977	     98.85248081	     85.67736633
      1.65000000	    -19.53066793	     -1.73439812	     -4.59429323	      0.83013957	      0.82864128	     -0.30851691	     78.31145569	     -7.09152877	      2.70967351	     86.36207865	     28.82947061	    -10.28092300	      0.00000000	     79.98780943	    -20.98129184	      1.61630262	     85.77941908	     28.93455636	     -6.97003346	      0.00000000	    -22.87942647	     -0.31421054	      1.55996734	     17.34271175	    -23.81815118	      2.97184599	     85.48561969	     88.45110592	     24.05748253	    -29.64519563	     12.35671487	    100.09091114	     86.30555965
      1.66666670	    -21.02283731	     -1.15297944	     -4.50856130	      0.83056720	      0.80915719	     -0.31299983	     82.23651715	     -7.72716279	      3.65185933	     90.12521117	     30.19405664	    -10.54958140	      0.00000000	     83.62239865	    -20.90123200	      2.06333761	     89.42157877	     30.59569708	     -6.66686337	      0.00000000	    -23.73905798	     -0.18559343	      2.79885535	     27.72573622	    -26.11999403	      7.94838138	     87.28388516	     89.79423117	     33.35870475	    -28.13314262	     17.27527764	     99.60630248	     87.36545497
